<?xml version="1.0" standalone="no"?><!DOCTYPE svg PUBLIC "-//W3C//DTD SVG 1.1//EN" "http://www.w3.org/Graphics/SVG/1.1/DTD/svg11.dtd"><svg t="1576542514684" class="icon" viewBox="0 0 1024 1024" version="1.1" xmlns="http://www.w3.org/2000/svg" p-id="11797" xmlns:xlink="http://www.w3.org/1999/xlink" width="64" height="64"><defs><style type="text/css"></style></defs><path d="M752.64 376.32 546.56 202.88c-19.2-16-50.56-16-69.76 0L270.72 376.32C240 402.56 261.76 447.36 305.28 447.36L384 447.36C384 447.36 384 448 384 448l0 320c0 35.2 28.8 64 64 64l128 0c35.2 0 64-28.8 64-64L640 448c0 0 0-0.64 0-0.64l78.08 0C761.6 447.36 783.36 402.56 752.64 376.32z" p-id="11798"></path></svg>