<?xml version="1.0" standalone="no"?><!DOCTYPE svg PUBLIC "-//W3C//DTD SVG 1.1//EN" "http://www.w3.org/Graphics/SVG/1.1/DTD/svg11.dtd"><svg t="1576542545367" class="icon" viewBox="0 0 1024 1024" version="1.1" xmlns="http://www.w3.org/2000/svg" p-id="12427" xmlns:xlink="http://www.w3.org/1999/xlink" width="64" height="64"><defs><style type="text/css"></style></defs><path d="M719.36 575.36l-77.44 0c0-0.64 0-0.64 0-1.28L641.92 256c0-35.2-28.8-64-64-64L448 192C412.8 192 384 220.8 384 256l0 318.08c0 0.64 0 0.64 0 1.28L305.92 575.36c-44.16 0-65.92 44.8-35.2 70.4l206.72 173.44c19.2 16 50.56 16 69.76 0l206.72-173.44C785.28 620.16 763.52 575.36 719.36 575.36z" p-id="12428"></path></svg>